<svg width="140" height="140" viewBox="0 0 140 140" fill="none" xmlns="http://www.w3.org/2000/svg"><circle cx="70" cy="70" r="56" fill="url(#paint0_radial_341_2)"></circle><path d="M71.1542 107.645L71.7797 112L76.1586 109.823V107.645L78.0352 105.779H80.2247L82.4141 102.98H83.978L85.8546 99.8693H88.9824L94.2996 95.2035L97.1145 91.471L100.555 86.4943L105.247 79.9623L109 73.4304L105.247 70.0089L98.6784 66.8985L95.5507 62.5438L88.9824 59.7444L83.978 55.7009H78.0352L73.0308 53.5236L65.837 57.8782L63.3348 55.7009L62.0837 53.5236V49.791L57.7048 50.4131L56.141 47.9248L57.7048 43.8812L55.2026 45.4364L52.7004 47.9248L49.5727 46.3695V43.8812V40.7707L52.7004 38.2823L56.141 37.3492H59.8943L62.7093 39.5266H65.837L64.5859 37.3492L66.7753 34.5498H68.3392L69.2775 32.0615L71.7797 28.0179L76.1586 28.64L78.0352 25.5295L80.2247 22.7301L83.978 20.5528L88.9824 18.9976L82.4141 16.1982C66.1498 12.7145 51.0323 17.6497 45.5066 20.5528L40.5022 26.4627L38 32.0615V39.5266L39.2511 42.637L40.5022 39.5266V43.8812L41.7533 47.9248L46.4449 50.4131H51.1366L53.6388 53.5236H57.7048L60.5198 56.0119L64.5859 60.9887L62.7093 64.7212L64.5859 70.0089V74.6746L66.7753 78.0961L69.2775 82.4507L73.9692 88.0496V92.4042V96.1367L73.0308 99.8693L71.1542 103.913V107.645Z" fill="#629219" fill-opacity="0.71"></path><path d="M108.765 37.4872C109.946 36.2621 108.205 32.4036 107.187 30.6274C114.312 32.4202 119.682 44.216 121.477 49.8898L115.233 48.5787L113.119 42.9333C111.176 41.6284 107.584 38.7123 108.765 37.4872Z" fill="#629219"></path><defs><radialGradient id="paint0_radial_341_2" cx="0" cy="0" r="1" gradientUnits="userSpaceOnUse" gradientTransform="translate(82 38) rotate(128.306) scale(151.648)"><stop stop-color="#97C9F5"></stop><stop offset="0.23203" stop-color="#97C9F5"></stop><stop offset="0.336914" stop-color="#97C9F5"></stop><stop offset="0.531982" stop-color="#6596C4"></stop><stop offset="1" stop-color="#6596C1"></stop></radialGradient></defs></svg>